<svg id="sync_disabled-24px" xmlns="http://www.w3.org/2000/svg" width="24" height="24" viewBox="0 0 24 24">
  <path id="Path_4199" data-name="Path 4199" d="M0,0H24V24H0ZM0,0H24V24H0Z" fill="none"/>
  <path id="Path_4200" data-name="Path 4200" d="M10,5.74V5.55a.917.917,0,0,0-1.32-.82c-.19.09-.36.2-.54.3L9.6,6.49A.948.948,0,0,0,10,5.74ZM20,12a7.925,7.925,0,0,0-2.36-5.64l1.51-1.51A.5.5,0,0,0,18.79,4H14V8.79a.5.5,0,0,0,.85.35l1.39-1.39A6.045,6.045,0,0,1,18,12a5.945,5.945,0,0,1-.5,2.39l1.48,1.48A7.919,7.919,0,0,0,20,12ZM3.57,4.7a1,1,0,0,0,0,1.41L5.22,7.76a7.943,7.943,0,0,0,1.14,9.88L4.85,19.15a.5.5,0,0,0,.36.85H9.5a.5.5,0,0,0,.5-.5V15.21a.5.5,0,0,0-.85-.35L7.76,16.25A6.045,6.045,0,0,1,6,12a5.97,5.97,0,0,1,.69-2.76l8.07,8.07a.06.06,0,0,0-.01.04.975.975,0,0,0-.75.91v.18a.917.917,0,0,0,1.32.82,7.84,7.84,0,0,0,.9-.49l1.87,1.87a1,1,0,0,0,1.41-1.41L4.98,4.7a1,1,0,0,0-1.41,0Z" fill="#7f7f7f"/>
</svg>
