<svg xmlns="http://www.w3.org/2000/svg" width="16" height="20.583" viewBox="0 0 16 20.583">
  <path id="Path_4202" data-name="Path 4202" d="M12,4V2.21a.5.5,0,0,0-.85-.35L8.35,4.65a.5.5,0,0,0,0,.71l2.79,2.79A.506.506,0,0,0,12,7.79V6a6,6,0,0,1,6,6,5.823,5.823,0,0,1-.44,2.25.961.961,0,0,0,.23,1.04,1,1,0,0,0,1.64-.34A7.828,7.828,0,0,0,20,12a8,8,0,0,0-8-8Zm0,14a6,6,0,0,1-6-6,5.823,5.823,0,0,1,.44-2.25.961.961,0,0,0-.23-1.04,1,1,0,0,0-1.64.34A7.828,7.828,0,0,0,4,12a8,8,0,0,0,8,8v1.79a.5.5,0,0,0,.85.35l2.79-2.79a.5.5,0,0,0,0-.71l-2.79-2.79a.5.5,0,0,0-.85.36Z" transform="translate(-4 -1.708)" fill="#35ca56"/>
</svg>
